<svg xmlns:osb="http://www.openswatchbook.org/uri/2009/osb" xmlns="http://www.w3.org/2000/svg" width="512" height="512" viewBox="0 0 384 384"><defs><linearGradient id="a" x1="0" y1=".5" x2="1" y2=".5" gradientTransform="matrix(24 0 0 24 11.805 12)" gradientUnits="userSpaceOnUse" osb:paint="gradient"><stop offset="0%" stop-color="#d300dc"/><stop offset="100%" stop-color="#8700ff"/></linearGradient><linearGradient id="c" x1="0" y1=".5" x2="1" y2=".5" gradientTransform="scale(48 47.7)" gradientUnits="userSpaceOnUse"><stop offset="0%" stop-color="#d300dc"/><stop offset="100%" stop-color="#8700ff"/></linearGradient><clipPath id="b"><path d="M0 0h48v48H0z"/></clipPath></defs><g fill="none" stroke="#ffa32a" stroke-linejoin="round"><path d="M262.45 29.712l-6.366-2.193c78.513 30.51 124.54 112.234 109.932 195.194-14.607 82.96-85.78 144.05-169.993 145.91-84.213 1.86-158.01-56.028-176.26-138.262C1.51 148.126 43.89 64.449 120.982 30.503l-4.754 2.705" stroke-width="30.885"/><rect width="5.286" height="200.855" x="149.385" y="89.443" rx="14.173" ry="14.173" stroke-width="30.885"/><rect width="5.216" height="117.102" x="38.182" y="254.812" rx="14.099" ry="14.109" transform="matrix(.79632 -.60487 .5433 .83954 0 0)" stroke-width="30.929"/><rect width="5.216" height="117.102" x="-248.249" y="-46.929" rx="14.099" ry="14.109" transform="matrix(-.77536 -.63152 .68803 -.72568 0 0)" stroke-width="30.929"/></g></svg>