<svg xmlns:osb="http://www.openswatchbook.org/uri/2009/osb" xmlns="http://www.w3.org/2000/svg" width="512" height="512" viewBox="0 0 384 384"><defs><linearGradient id="a" x1="0" y1=".5" x2="1" y2=".5" gradientTransform="matrix(24 0 0 24 11.805 12)" gradientUnits="userSpaceOnUse" osb:paint="gradient"><stop offset="0%" stop-color="#d300dc"/><stop offset="100%" stop-color="#8700ff"/></linearGradient><linearGradient id="c" x1="0" y1=".5" x2="1" y2=".5" gradientTransform="scale(48 47.7)" gradientUnits="userSpaceOnUse"><stop offset="0%" stop-color="#d300dc"/><stop offset="100%" stop-color="#8700ff"/></linearGradient><clipPath id="b"><path d="M0 0h48v48H0z"/></clipPath></defs><g fill-rule="evenodd" fill="#f33d5f"><path d="M129.886 220.27c0 12.387-10.12 22.507-22.507 22.507-12.388 0-22.507-10.12-22.507-22.507 0-12.388 10.12-22.508 22.507-22.508h22.507zM141.227 220.27c0-12.388 10.12-22.508 22.507-22.508 12.388 0 22.507 10.12 22.507 22.508v56.355c0 12.388-10.12 22.507-22.507 22.507-12.387 0-22.507-10.12-22.507-22.507zM163.734 129.886c-12.387 0-22.507-10.12-22.507-22.507 0-12.388 10.12-22.507 22.507-22.507 12.388 0 22.507 10.12 22.507 22.507v22.507zM163.734 141.227c12.388 0 22.507 10.12 22.507 22.507 0 12.388-10.12 22.508-22.507 22.508H107.38c-12.388 0-22.507-10.12-22.507-22.508 0-12.387 10.12-22.507 22.507-22.507zM254.114 163.734c0-12.387 10.12-22.507 22.507-22.507 12.387 0 22.507 10.12 22.507 22.507 0 12.388-10.12 22.508-22.507 22.508h-22.507zM242.766 163.734c0 12.388-10.12 22.508-22.507 22.508-12.388 0-22.507-10.12-22.507-22.508V107.38c0-12.388 10.12-22.507 22.507-22.507 12.387 0 22.507 10.12 22.507 22.507zM220.27 254.114c12.387 0 22.506 10.12 22.506 22.507 0 12.388-10.12 22.507-22.507 22.507-12.387 0-22.507-10.12-22.507-22.507v-22.507zM220.27 242.766c-12.388 0-22.508-10.12-22.508-22.507 0-12.388 10.12-22.507 22.507-22.507h56.356c12.387 0 22.507 10.12 22.507 22.507 0 12.388-10.12 22.507-22.507 22.507z"/><path d="M163.733 84.872c-12.388 0-22.507 10.12-22.507 22.507 0 .804.044 1.598.127 2.38 1.198-11.277 10.796-20.125 22.38-20.125 12.388 0 22.507 10.12 22.507 22.507v-4.762c0-12.388-10.12-22.507-22.507-22.507zm56.53 0c-12.388 0-22.508 10.12-22.508 22.507v4.762c0-12.388 10.12-22.507 22.508-22.507s22.507 10.12 22.507 22.507v-4.762c0-12.388-10.12-22.507-22.507-22.507zm-112.885 56.355c-12.387 0-22.506 10.12-22.506 22.507 0 .804.044 1.597.127 2.38 1.197-11.277 10.796-20.126 22.38-20.126h56.354c11.584 0 21.182 8.85 22.38 20.126.083-.783.127-1.576.127-2.38 0-12.388-10.12-22.507-22.507-22.507H107.38zm169.244 0c-12.387 0-22.508 10.12-22.508 22.507v4.76c0-12.387 10.121-22.506 22.508-22.506 11.584 0 21.183 8.85 22.38 20.126.083-.783.128-1.576.128-2.38 0-12.388-10.12-22.507-22.507-22.507zm-169.244 56.53c-12.387 0-22.506 10.12-22.506 22.508 0 .804.044 1.598.127 2.38 1.197-11.277 10.796-20.127 22.38-20.127h22.507v-4.76h-22.507zm56.355 0c-12.388 0-22.507 10.12-22.507 22.508v4.761c0-12.388 10.12-22.508 22.507-22.508 12.387 0 22.507 10.12 22.507 22.508v-4.761c0-12.388-10.12-22.508-22.507-22.508zm56.53 0c-12.388 0-22.508 10.12-22.508 22.508 0 .804.045 1.598.128 2.38 1.197-11.277 10.797-20.127 22.38-20.127h56.355c11.584 0 21.182 8.85 22.38 20.128.083-.783.127-1.577.127-2.381 0-12.388-10.12-22.508-22.507-22.508h-56.354zm-22.508 56.354v4.762h22.508c11.584 0 21.183 8.85 22.38 20.127.083-.783.128-1.577.128-2.38 0-12.388-10.12-22.509-22.507-22.509h-22.508z" opacity=".3"/><path d="M141.355 104.999a22.534 22.534 0 00-.128 2.38c0 12.388 10.12 22.507 22.507 22.507h22.507v-4.761h-22.507c-11.583 0-21.182-8.85-22.38-20.126zm56.402 53.973v4.762c0 12.387 10.12 22.507 22.508 22.507 12.387 0 22.507-10.12 22.507-22.507v-4.762c0 12.388-10.12 22.507-22.507 22.507-12.388 0-22.508-10.12-22.508-22.507zM85 161.352a22.535 22.535 0 00-.128 2.382c0 12.387 10.12 22.507 22.507 22.507h56.354c12.388 0 22.507-10.12 22.507-22.507 0-.804-.044-1.598-.127-2.381-1.197 11.277-10.796 20.126-22.38 20.126H107.38c-11.584 0-21.183-8.849-22.38-20.126zm214 0c-1.198 11.278-10.797 20.127-22.38 20.127h-22.508v4.762h22.508c12.387 0 22.506-10.12 22.506-22.507 0-.804-.044-1.598-.127-2.381zm-169.116 54.15c0 12.389-10.12 22.508-22.507 22.508-11.584 0-21.182-8.85-22.38-20.127a22.535 22.535 0 00-.127 2.381c0 12.388 10.12 22.507 22.507 22.507 12.388 0 22.507-10.12 22.507-22.507v-4.761zm68 2.381a22.531 22.531 0 00-.127 2.381c0 12.388 10.12 22.507 22.508 22.507h56.354c12.388 0 22.507-10.12 22.507-22.507 0-.804-.044-1.598-.127-2.38-1.198 11.277-10.796 20.126-22.38 20.126h-56.354c-11.584 0-21.184-8.85-22.381-20.127zm-56.659 53.974v4.761c0 12.388 10.12 22.507 22.507 22.507 12.388 0 22.507-10.12 22.507-22.507v-4.76c0 12.387-10.12 22.506-22.507 22.506-12.387 0-22.507-10.12-22.507-22.507zm56.53 0v4.761c0 12.388 10.121 22.507 22.509 22.507 12.387 0 22.507-10.12 22.507-22.507 0-.804-.045-1.597-.128-2.38-1.197 11.277-10.796 20.126-22.38 20.126-12.387 0-22.507-10.12-22.507-22.507z" opacity=".3"/></g><path d="M15.158 185.259l.262 6.727c0-84.233 59.504-156.735 142.122-173.168 82.618-16.433 165.34 27.78 197.575 105.601 32.236 77.821 5.008 167.575-65.032 214.372-70.04 46.797-163.385 37.604-222.949-21.958l4.243 3.451" fill="none" stroke="#f33d5f" stroke-width="30.885" stroke-linejoin="round"/></svg>